<svg width="273" height="273" viewBox="0 0 273 273" fill="none" xmlns="http://www.w3.org/2000/svg">
<path d="M114.747 145L122.176 130.075H113.951V128.528H124.011V130.075L116.604 145H114.747ZM133.12 145.265C131.823 145.265 130.68 144.912 129.693 144.204C128.72 143.482 127.961 142.487 127.415 141.219C126.87 139.937 126.597 138.448 126.597 136.753C126.597 135.058 126.87 133.576 127.415 132.309C127.961 131.026 128.72 130.031 129.693 129.324C130.666 128.616 131.801 128.262 133.098 128.262C134.395 128.262 135.53 128.616 136.503 129.324C137.476 130.031 138.235 131.026 138.78 132.309C139.325 133.576 139.598 135.058 139.598 136.753C139.598 138.448 139.325 139.937 138.78 141.219C138.249 142.502 137.498 143.496 136.525 144.204C135.552 144.912 134.417 145.265 133.12 145.265ZM133.12 143.607C134.063 143.607 134.889 143.32 135.596 142.745C136.304 142.17 136.856 141.374 137.254 140.357C137.652 139.325 137.851 138.124 137.851 136.753C137.851 135.382 137.652 134.188 137.254 133.171C136.856 132.139 136.304 131.343 135.596 130.783C134.889 130.208 134.056 129.921 133.098 129.921C132.154 129.921 131.329 130.208 130.621 130.783C129.914 131.343 129.361 132.139 128.963 133.171C128.565 134.188 128.366 135.382 128.366 136.753C128.366 138.109 128.565 139.303 128.963 140.335C129.361 141.367 129.914 142.17 130.621 142.745C131.344 143.32 132.176 143.607 133.12 143.607ZM144.251 145L157.738 128.528H159.883L146.395 145H144.251ZM146.661 136.885C145.865 136.885 145.142 136.694 144.494 136.311C143.845 135.913 143.322 135.389 142.924 134.741C142.541 134.092 142.349 133.37 142.349 132.574C142.349 131.778 142.541 131.056 142.924 130.407C143.322 129.744 143.845 129.221 144.494 128.837C145.142 128.454 145.865 128.262 146.661 128.262C147.457 128.262 148.179 128.454 148.828 128.837C149.476 129.221 149.992 129.744 150.375 130.407C150.759 131.056 150.95 131.778 150.95 132.574C150.95 133.37 150.759 134.092 150.375 134.741C149.992 135.389 149.476 135.913 148.828 136.311C148.179 136.694 147.457 136.885 146.661 136.885ZM146.661 135.294C147.177 135.294 147.626 135.168 148.009 134.918C148.407 134.652 148.717 134.313 148.938 133.901C149.174 133.473 149.292 133.031 149.292 132.574C149.292 132.102 149.174 131.66 148.938 131.247C148.717 130.835 148.407 130.503 148.009 130.252C147.626 129.987 147.177 129.854 146.661 129.854C146.16 129.854 145.703 129.987 145.29 130.252C144.892 130.503 144.575 130.835 144.339 131.247C144.118 131.66 144.007 132.102 144.007 132.574C144.007 133.031 144.118 133.473 144.339 133.901C144.575 134.313 144.892 134.652 145.29 134.918C145.703 135.168 146.16 135.294 146.661 135.294ZM157.274 145.265C156.478 145.265 155.755 145.074 155.107 144.69C154.458 144.292 153.935 143.769 153.537 143.121C153.154 142.472 152.962 141.75 152.962 140.954C152.962 140.158 153.154 139.436 153.537 138.787C153.935 138.124 154.458 137.6 155.107 137.217C155.755 136.834 156.478 136.642 157.274 136.642C158.07 136.642 158.792 136.834 159.441 137.217C160.089 137.6 160.605 138.124 160.988 138.787C161.372 139.436 161.563 140.158 161.563 140.954C161.563 141.75 161.372 142.472 160.988 143.121C160.605 143.769 160.089 144.292 159.441 144.69C158.792 145.074 158.07 145.265 157.274 145.265ZM157.274 143.673C157.79 143.673 158.239 143.548 158.622 143.297C159.02 143.032 159.33 142.693 159.551 142.28C159.787 141.853 159.905 141.411 159.905 140.954C159.905 140.482 159.787 140.04 159.551 139.627C159.33 139.214 159.02 138.883 158.622 138.632C158.239 138.367 157.79 138.234 157.274 138.234C156.773 138.234 156.316 138.367 155.903 138.632C155.505 138.883 155.188 139.214 154.952 139.627C154.731 140.04 154.62 140.482 154.62 140.954C154.62 141.411 154.731 141.853 154.952 142.28C155.188 142.693 155.505 143.032 155.903 143.297C156.316 143.548 156.773 143.673 157.274 143.673Z" fill="white"/>
<path d="M202.059 65.8599C240.906 102.233 242.911 163.212 206.537 202.059C170.164 240.905 109.185 242.911 70.3385 206.537C31.4916 170.163 29.4866 109.185 65.8602 70.3382C102.234 31.4913 163.212 29.4863 202.059 65.8599ZM78.4462 197.878C112.511 229.774 165.982 228.016 197.878 193.951C229.774 159.886 228.016 106.415 193.951 74.5189C159.887 42.6231 106.415 44.3813 74.5192 78.4459C42.6234 112.511 44.3816 165.982 78.4462 197.878Z" fill="#343347"/>
<path d="M136.767 45.3106C136.767 42.035 139.425 39.3605 142.695 39.562C158.395 40.5295 173.652 45.3289 187.115 53.579C202.267 62.8642 214.556 76.1586 222.624 91.9925C230.692 107.826 234.224 125.583 232.829 143.299C231.435 161.015 225.169 178 214.723 192.377C204.278 206.754 190.06 217.962 173.642 224.763C157.224 231.563 139.245 233.691 121.693 230.911C104.141 228.131 87.7001 220.552 74.1871 209.011C62.1805 198.756 52.9013 185.729 47.1296 171.096C45.9277 168.049 47.6498 164.695 50.7652 163.682V163.682C53.8805 162.67 57.207 164.385 58.4353 167.422C63.5135 179.977 71.5483 191.157 81.891 199.99C93.7405 210.111 108.158 216.757 123.549 219.195C138.94 221.633 154.706 219.767 169.103 213.803C183.5 207.84 195.967 198.012 205.127 185.405C214.286 172.798 219.781 157.903 221.004 142.368C222.226 126.833 219.129 111.262 212.054 97.3778C204.98 83.4932 194.204 71.8354 180.917 63.6932C169.319 56.5864 156.204 52.3997 142.694 51.4498C139.426 51.2201 136.767 48.5863 136.767 45.3106V45.3106Z" fill="#4352FF"/>
</svg>
