<svg width="273" height="273" viewBox="0 0 273 273" fill="none" xmlns="http://www.w3.org/2000/svg">
<path d="M114.747 145L122.176 130.075H113.951V128.528H124.011V130.075L116.604 145H114.747ZM131.251 145.265C130.396 145.265 129.6 145.118 128.863 144.823C128.141 144.528 127.507 144.108 126.961 143.563C126.416 143.017 126.003 142.369 125.723 141.617L127.072 140.954C127.411 141.809 127.964 142.487 128.73 142.988C129.511 143.474 130.352 143.718 131.251 143.718C131.973 143.718 132.614 143.548 133.174 143.209C133.749 142.87 134.199 142.413 134.523 141.838C134.847 141.249 135.01 140.593 135.01 139.87C135.01 139.119 134.84 138.455 134.501 137.88C134.177 137.306 133.735 136.856 133.174 136.532C132.614 136.193 131.98 136.023 131.273 136.023C130.551 136.023 129.88 136.193 129.261 136.532C128.656 136.856 128.214 137.254 127.934 137.726L126.541 137.46L127.779 128.528H136.115V130.075H128.421L129.106 129.478L128.111 136.51L127.426 136.2C127.942 135.566 128.546 135.117 129.239 134.851C129.932 134.571 130.639 134.431 131.361 134.431C132.423 134.431 133.359 134.682 134.169 135.183C134.98 135.669 135.614 136.325 136.071 137.151C136.543 137.962 136.778 138.868 136.778 139.87C136.778 140.887 136.535 141.809 136.049 142.634C135.577 143.445 134.921 144.086 134.081 144.558C133.255 145.029 132.312 145.265 131.251 145.265ZM141.249 145L154.737 128.528H156.881L143.394 145H141.249ZM143.659 136.885C142.863 136.885 142.141 136.694 141.493 136.311C140.844 135.913 140.321 135.389 139.923 134.741C139.54 134.092 139.348 133.37 139.348 132.574C139.348 131.778 139.54 131.056 139.923 130.407C140.321 129.744 140.844 129.221 141.493 128.837C142.141 128.454 142.863 128.262 143.659 128.262C144.455 128.262 145.178 128.454 145.826 128.837C146.475 129.221 146.991 129.744 147.374 130.407C147.757 131.056 147.949 131.778 147.949 132.574C147.949 133.37 147.757 134.092 147.374 134.741C146.991 135.389 146.475 135.913 145.826 136.311C145.178 136.694 144.455 136.885 143.659 136.885ZM143.659 135.294C144.175 135.294 144.625 135.168 145.008 134.918C145.406 134.652 145.716 134.313 145.937 133.901C146.173 133.473 146.291 133.031 146.291 132.574C146.291 132.102 146.173 131.66 145.937 131.247C145.716 130.835 145.406 130.503 145.008 130.252C144.625 129.987 144.175 129.854 143.659 129.854C143.158 129.854 142.701 129.987 142.289 130.252C141.891 130.503 141.574 130.835 141.338 131.247C141.117 131.66 141.006 132.102 141.006 132.574C141.006 133.031 141.117 133.473 141.338 133.901C141.574 134.313 141.891 134.652 142.289 134.918C142.701 135.168 143.158 135.294 143.659 135.294ZM154.272 145.265C153.476 145.265 152.754 145.074 152.106 144.69C151.457 144.292 150.934 143.769 150.536 143.121C150.153 142.472 149.961 141.75 149.961 140.954C149.961 140.158 150.153 139.436 150.536 138.787C150.934 138.124 151.457 137.6 152.106 137.217C152.754 136.834 153.476 136.642 154.272 136.642C155.068 136.642 155.791 136.834 156.439 137.217C157.088 137.6 157.604 138.124 157.987 138.787C158.37 139.436 158.562 140.158 158.562 140.954C158.562 141.75 158.37 142.472 157.987 143.121C157.604 143.769 157.088 144.292 156.439 144.69C155.791 145.074 155.068 145.265 154.272 145.265ZM154.272 143.673C154.788 143.673 155.238 143.548 155.621 143.297C156.019 143.032 156.329 142.693 156.55 142.28C156.786 141.853 156.904 141.411 156.904 140.954C156.904 140.482 156.786 140.04 156.55 139.627C156.329 139.214 156.019 138.883 155.621 138.632C155.238 138.367 154.788 138.234 154.272 138.234C153.771 138.234 153.314 138.367 152.902 138.632C152.504 138.883 152.187 139.214 151.951 139.627C151.73 140.04 151.619 140.482 151.619 140.954C151.619 141.411 151.73 141.853 151.951 142.28C152.187 142.693 152.504 143.032 152.902 143.297C153.314 143.548 153.771 143.673 154.272 143.673Z" fill="white"/>
<path d="M202.059 65.8599C240.906 102.233 242.911 163.212 206.537 202.059C170.164 240.905 109.185 242.911 70.3385 206.537C31.4916 170.163 29.4866 109.185 65.8602 70.3382C102.234 31.4913 163.212 29.4863 202.059 65.8599ZM78.4462 197.878C112.511 229.774 165.982 228.016 197.878 193.951C229.774 159.886 228.016 106.415 193.951 74.5189C159.887 42.6231 106.415 44.3813 74.5192 78.4459C42.6234 112.511 44.3816 165.982 78.4462 197.878Z" fill="#343347"/>
<path d="M136.767 45.3106C136.767 42.035 139.425 39.3605 142.695 39.562C159.669 40.608 176.103 46.1317 190.302 55.6189C206.148 66.207 218.498 81.2562 225.791 98.8636C233.085 116.471 234.993 135.845 231.275 154.537C227.557 173.229 218.379 190.399 204.903 203.875C191.427 217.351 174.258 226.528 155.566 230.246C136.874 233.964 117.5 232.056 99.8923 224.763C82.2849 217.47 67.2357 205.119 56.6476 189.273C47.1604 175.074 41.6367 158.64 40.5907 141.666C40.3892 138.397 43.0637 135.739 46.3393 135.739V135.739C49.615 135.739 52.2488 138.397 52.4785 141.665C53.5068 156.291 58.3272 170.435 66.5107 182.682C75.7954 196.578 88.992 207.408 104.432 213.803C119.872 220.199 136.861 221.872 153.252 218.612C169.643 215.351 184.698 207.304 196.516 195.487C208.333 183.67 216.38 168.614 219.641 152.223C222.901 135.832 221.228 118.843 214.832 103.403C208.437 87.9633 197.607 74.7667 183.711 65.4821C171.464 57.2985 157.32 52.4781 142.694 51.4498C139.426 51.2201 136.767 48.5863 136.767 45.3106V45.3106Z" fill="#4352FF"/>
</svg>
