<svg width="273" height="273" viewBox="0 0 273 273" fill="none" xmlns="http://www.w3.org/2000/svg">
<path d="M119.943 145.265C118.881 145.265 117.931 145.052 117.09 144.624C116.265 144.182 115.609 143.585 115.123 142.833C114.651 142.067 114.415 141.204 114.415 140.246C114.415 139.2 114.71 138.264 115.299 137.438C115.904 136.613 116.715 136.038 117.732 135.714V136.178C116.95 135.839 116.346 135.338 115.919 134.674C115.491 133.996 115.277 133.274 115.277 132.508C115.277 131.697 115.484 130.975 115.896 130.341C116.309 129.707 116.862 129.206 117.555 128.837C118.262 128.454 119.058 128.262 119.943 128.262C120.842 128.262 121.638 128.447 122.331 128.815C123.023 129.169 123.569 129.67 123.967 130.319C124.38 130.952 124.586 131.682 124.586 132.508C124.586 133.333 124.365 134.07 123.923 134.719C123.48 135.352 122.898 135.839 122.176 136.178L122.154 135.714C123.171 136.038 123.974 136.613 124.564 137.438C125.168 138.264 125.47 139.2 125.47 140.246C125.47 141.204 125.227 142.067 124.741 142.833C124.269 143.585 123.613 144.182 122.773 144.624C121.947 145.052 121.004 145.265 119.943 145.265ZM119.943 143.718C120.694 143.718 121.35 143.578 121.911 143.297C122.471 143.003 122.905 142.597 123.215 142.081C123.539 141.551 123.701 140.939 123.701 140.246C123.701 139.553 123.539 138.949 123.215 138.433C122.905 137.903 122.471 137.497 121.911 137.217C121.35 136.922 120.694 136.775 119.943 136.775C119.191 136.775 118.528 136.922 117.953 137.217C117.393 137.497 116.958 137.903 116.648 138.433C116.339 138.949 116.184 139.553 116.184 140.246C116.184 140.939 116.339 141.551 116.648 142.081C116.958 142.597 117.393 143.003 117.953 143.297C118.528 143.578 119.191 143.718 119.943 143.718ZM119.943 135.227C120.488 135.227 120.975 135.117 121.402 134.896C121.829 134.66 122.168 134.343 122.419 133.945C122.684 133.532 122.817 133.053 122.817 132.508C122.817 131.962 122.684 131.491 122.419 131.093C122.168 130.695 121.829 130.385 121.402 130.164C120.975 129.928 120.488 129.81 119.943 129.81C119.397 129.81 118.903 129.928 118.461 130.164C118.034 130.385 117.687 130.695 117.422 131.093C117.172 131.491 117.046 131.962 117.046 132.508C117.046 133.053 117.172 133.532 117.422 133.945C117.687 134.343 118.034 134.66 118.461 134.896C118.903 135.117 119.397 135.227 119.943 135.227ZM134.998 145.265C133.701 145.265 132.559 144.912 131.571 144.204C130.598 143.482 129.839 142.487 129.294 141.219C128.748 139.937 128.476 138.448 128.476 136.753C128.476 135.058 128.748 133.576 129.294 132.309C129.839 131.026 130.598 130.031 131.571 129.324C132.544 128.616 133.679 128.262 134.976 128.262C136.273 128.262 137.408 128.616 138.381 129.324C139.354 130.031 140.113 131.026 140.659 132.309C141.204 133.576 141.477 135.058 141.477 136.753C141.477 138.448 141.204 139.937 140.659 141.219C140.128 142.502 139.376 143.496 138.403 144.204C137.43 144.912 136.295 145.265 134.998 145.265ZM134.998 143.607C135.942 143.607 136.767 143.32 137.475 142.745C138.182 142.17 138.735 141.374 139.133 140.357C139.531 139.325 139.73 138.124 139.73 136.753C139.73 135.382 139.531 134.188 139.133 133.171C138.735 132.139 138.182 131.343 137.475 130.783C136.767 130.208 135.934 129.921 134.976 129.921C134.033 129.921 133.207 130.208 132.5 130.783C131.792 131.343 131.24 132.139 130.842 133.171C130.444 134.188 130.245 135.382 130.245 136.753C130.245 138.109 130.444 139.303 130.842 140.335C131.24 141.367 131.792 142.17 132.5 142.745C133.222 143.32 134.055 143.607 134.998 143.607ZM146.129 145L159.617 128.528H161.761L148.274 145H146.129ZM148.539 136.885C147.743 136.885 147.021 136.694 146.372 136.311C145.724 135.913 145.201 135.389 144.803 134.741C144.419 134.092 144.228 133.37 144.228 132.574C144.228 131.778 144.419 131.056 144.803 130.407C145.201 129.744 145.724 129.221 146.372 128.837C147.021 128.454 147.743 128.262 148.539 128.262C149.335 128.262 150.058 128.454 150.706 128.837C151.355 129.221 151.871 129.744 152.254 130.407C152.637 131.056 152.829 131.778 152.829 132.574C152.829 133.37 152.637 134.092 152.254 134.741C151.871 135.389 151.355 135.913 150.706 136.311C150.058 136.694 149.335 136.885 148.539 136.885ZM148.539 135.294C149.055 135.294 149.505 135.168 149.888 134.918C150.286 134.652 150.596 134.313 150.817 133.901C151.052 133.473 151.17 133.031 151.17 132.574C151.17 132.102 151.052 131.66 150.817 131.247C150.596 130.835 150.286 130.503 149.888 130.252C149.505 129.987 149.055 129.854 148.539 129.854C148.038 129.854 147.581 129.987 147.168 130.252C146.77 130.503 146.454 130.835 146.218 131.247C145.997 131.66 145.886 132.102 145.886 132.574C145.886 133.031 145.997 133.473 146.218 133.901C146.454 134.313 146.77 134.652 147.168 134.918C147.581 135.168 148.038 135.294 148.539 135.294ZM159.152 145.265C158.356 145.265 157.634 145.074 156.985 144.69C156.337 144.292 155.814 143.769 155.416 143.121C155.032 142.472 154.841 141.75 154.841 140.954C154.841 140.158 155.032 139.436 155.416 138.787C155.814 138.124 156.337 137.6 156.985 137.217C157.634 136.834 158.356 136.642 159.152 136.642C159.948 136.642 160.671 136.834 161.319 137.217C161.968 137.6 162.484 138.124 162.867 138.787C163.25 139.436 163.442 140.158 163.442 140.954C163.442 141.75 163.25 142.472 162.867 143.121C162.484 143.769 161.968 144.292 161.319 144.69C160.671 145.074 159.948 145.265 159.152 145.265ZM159.152 143.673C159.668 143.673 160.118 143.548 160.501 143.297C160.899 143.032 161.209 142.693 161.43 142.28C161.665 141.853 161.783 141.411 161.783 140.954C161.783 140.482 161.665 140.04 161.43 139.627C161.209 139.214 160.899 138.883 160.501 138.632C160.118 138.367 159.668 138.234 159.152 138.234C158.651 138.234 158.194 138.367 157.781 138.632C157.383 138.883 157.067 139.214 156.831 139.627C156.61 140.04 156.499 140.482 156.499 140.954C156.499 141.411 156.61 141.853 156.831 142.28C157.067 142.693 157.383 143.032 157.781 143.297C158.194 143.548 158.651 143.673 159.152 143.673Z" fill="white"/>
<path d="M202.059 65.8599C240.906 102.233 242.911 163.212 206.537 202.059C170.164 240.905 109.185 242.911 70.3385 206.537C31.4916 170.163 29.4866 109.185 65.8602 70.3382C102.234 31.4913 163.212 29.4863 202.059 65.8599ZM78.4462 197.878C112.511 229.774 165.982 228.016 197.878 193.951C229.774 159.886 228.016 106.415 193.951 74.5189C159.887 42.6231 106.415 44.3813 74.5192 78.4459C42.6234 112.511 44.3816 165.982 78.4462 197.878Z" fill="#343347"/>
<path d="M48.7117 115.161C45.522 114.415 42.3127 116.395 41.7648 119.624C38.6931 137.731 40.8543 156.384 48.0579 173.367C56.0353 192.175 69.7837 207.96 87.3179 218.444C104.852 228.927 125.264 233.567 145.608 231.693C165.951 229.818 185.172 221.527 200.495 208.016C215.818 194.505 226.451 176.473 230.857 156.525C235.264 136.576 233.217 115.744 225.011 97.035C216.805 78.3262 202.865 62.7097 185.204 52.4403C169.257 43.1671 151.021 38.6874 132.672 39.468C129.4 39.6072 127.034 42.5434 127.374 45.8013V45.8013C127.714 49.0593 130.632 51.4026 133.906 51.2917C149.749 50.7548 165.469 54.6862 179.242 62.6949C194.728 71.7001 206.952 85.3942 214.147 101.8C221.343 118.205 223.139 136.473 219.274 153.966C215.41 171.459 206.087 187.271 192.65 199.118C179.213 210.966 162.358 218.237 144.519 219.881C126.68 221.524 108.781 217.456 93.4053 208.262C78.0297 199.069 65.9737 185.227 58.9784 168.735C52.7571 154.068 50.8247 137.98 53.341 122.329C53.8609 119.095 51.9014 115.906 48.7117 115.161V115.161Z" fill="#4352FF"/>
</svg>
