<svg width="273" height="273" viewBox="0 0 273 273" fill="none" xmlns="http://www.w3.org/2000/svg">
<path d="M116.206 145.001L121.933 137.506L122.264 137.307C122.043 137.66 121.785 137.94 121.49 138.147C121.196 138.353 120.871 138.501 120.518 138.589C120.164 138.677 119.773 138.722 119.346 138.722C118.388 138.722 117.525 138.501 116.759 138.058C115.992 137.601 115.381 136.982 114.924 136.201C114.481 135.405 114.26 134.499 114.26 133.481C114.26 132.479 114.489 131.587 114.946 130.806C115.417 130.025 116.051 129.406 116.847 128.949C117.658 128.492 118.564 128.263 119.567 128.263C120.599 128.263 121.513 128.499 122.308 128.971C123.104 129.428 123.731 130.069 124.188 130.895C124.645 131.705 124.873 132.641 124.873 133.703C124.873 134.292 124.8 134.874 124.652 135.449C124.52 136.024 124.313 136.592 124.033 137.152C123.753 137.712 123.399 138.272 122.972 138.832L118.329 145.001H116.206ZM119.567 137.13C120.26 137.13 120.871 136.975 121.402 136.665C121.933 136.341 122.345 135.906 122.64 135.361C122.95 134.801 123.104 134.174 123.104 133.481C123.104 132.774 122.95 132.147 122.64 131.602C122.331 131.042 121.911 130.607 121.38 130.298C120.849 129.973 120.245 129.811 119.567 129.811C118.889 129.811 118.284 129.973 117.754 130.298C117.223 130.607 116.803 131.042 116.493 131.602C116.184 132.147 116.029 132.774 116.029 133.481C116.029 134.174 116.177 134.801 116.471 135.361C116.781 135.906 117.201 136.341 117.732 136.665C118.277 136.975 118.889 137.13 119.567 137.13ZM134.307 145.266C133.01 145.266 131.868 144.913 130.88 144.205C129.907 143.483 129.148 142.488 128.603 141.22C128.058 139.938 127.785 138.449 127.785 136.754C127.785 135.059 128.058 133.577 128.603 132.31C129.148 131.027 129.907 130.032 130.88 129.325C131.853 128.617 132.988 128.263 134.285 128.263C135.582 128.263 136.717 128.617 137.69 129.325C138.663 130.032 139.422 131.027 139.968 132.31C140.513 133.577 140.786 135.059 140.786 136.754C140.786 138.449 140.513 139.938 139.968 141.22C139.437 142.502 138.685 143.497 137.712 144.205C136.74 144.913 135.605 145.266 134.307 145.266ZM134.307 143.608C135.251 143.608 136.076 143.321 136.784 142.746C137.491 142.171 138.044 141.375 138.442 140.358C138.84 139.326 139.039 138.125 139.039 136.754C139.039 135.383 138.84 134.189 138.442 133.172C138.044 132.14 137.491 131.344 136.784 130.784C136.076 130.209 135.243 129.922 134.285 129.922C133.342 129.922 132.516 130.209 131.809 130.784C131.101 131.344 130.549 132.14 130.151 133.172C129.753 134.189 129.554 135.383 129.554 136.754C129.554 138.11 129.753 139.304 130.151 140.336C130.549 141.367 131.101 142.171 131.809 142.746C132.531 143.321 133.364 143.608 134.307 143.608ZM145.438 145.001L158.926 128.529H161.07L147.583 145.001H145.438ZM147.848 136.886C147.052 136.886 146.33 136.695 145.681 136.312C145.033 135.914 144.51 135.39 144.112 134.742C143.728 134.093 143.537 133.371 143.537 132.575C143.537 131.779 143.728 131.057 144.112 130.408C144.51 129.745 145.033 129.221 145.681 128.838C146.33 128.455 147.052 128.263 147.848 128.263C148.644 128.263 149.367 128.455 150.015 128.838C150.664 129.221 151.18 129.745 151.563 130.408C151.946 131.057 152.138 131.779 152.138 132.575C152.138 133.371 151.946 134.093 151.563 134.742C151.18 135.39 150.664 135.914 150.015 136.312C149.367 136.695 148.644 136.886 147.848 136.886ZM147.848 135.294C148.364 135.294 148.814 135.169 149.197 134.919C149.595 134.653 149.905 134.314 150.126 133.902C150.362 133.474 150.479 133.032 150.479 132.575C150.479 132.103 150.362 131.661 150.126 131.248C149.905 130.836 149.595 130.504 149.197 130.253C148.814 129.988 148.364 129.855 147.848 129.855C147.347 129.855 146.89 129.988 146.477 130.253C146.079 130.504 145.763 130.836 145.527 131.248C145.306 131.661 145.195 132.103 145.195 132.575C145.195 133.032 145.306 133.474 145.527 133.902C145.763 134.314 146.079 134.653 146.477 134.919C146.89 135.169 147.347 135.294 147.848 135.294ZM158.461 145.266C157.665 145.266 156.943 145.075 156.294 144.691C155.646 144.293 155.123 143.77 154.725 143.122C154.341 142.473 154.15 141.751 154.15 140.955C154.15 140.159 154.341 139.437 154.725 138.788C155.123 138.125 155.646 137.601 156.294 137.218C156.943 136.835 157.665 136.643 158.461 136.643C159.257 136.643 159.98 136.835 160.628 137.218C161.277 137.601 161.793 138.125 162.176 138.788C162.559 139.437 162.751 140.159 162.751 140.955C162.751 141.751 162.559 142.473 162.176 143.122C161.793 143.77 161.277 144.293 160.628 144.691C159.98 145.075 159.257 145.266 158.461 145.266ZM158.461 143.674C158.977 143.674 159.427 143.549 159.81 143.298C160.208 143.033 160.518 142.694 160.739 142.281C160.975 141.854 161.092 141.412 161.092 140.955C161.092 140.483 160.975 140.041 160.739 139.628C160.518 139.215 160.208 138.884 159.81 138.633C159.427 138.368 158.977 138.235 158.461 138.235C157.96 138.235 157.503 138.368 157.09 138.633C156.692 138.884 156.376 139.215 156.14 139.628C155.919 140.041 155.808 140.483 155.808 140.955C155.808 141.412 155.919 141.854 156.14 142.281C156.376 142.694 156.692 143.033 157.09 143.298C157.503 143.549 157.96 143.674 158.461 143.674Z" fill="white"/>
<path d="M202.059 65.8609C240.906 102.234 242.911 163.213 206.537 202.06C170.164 240.906 109.185 242.911 70.3385 206.538C31.4916 170.164 29.4866 109.186 65.8602 70.3392C102.234 31.4923 163.212 29.4873 202.059 65.8609ZM78.4462 197.879C112.511 229.775 165.982 228.017 197.878 193.952C229.774 159.887 228.016 106.416 193.951 74.5199C159.887 42.6241 106.415 44.3823 74.5192 78.4469C42.6234 112.512 44.3816 165.983 78.4462 197.879Z" fill="#343347"/>
<path d="M136.767 45.3116C136.767 42.036 139.426 39.3615 142.695 39.5629C163.51 40.8453 183.409 48.8545 199.347 62.4675C216.794 77.3681 228.351 98.0047 231.94 120.666C235.529 143.327 230.915 166.525 218.927 186.087C206.939 205.649 188.364 220.293 166.544 227.382C144.723 234.472 121.089 233.544 99.8923 224.764C78.6954 215.984 61.3268 199.928 50.9107 179.486C40.4946 159.043 37.7146 135.554 43.0706 113.245C47.9638 92.8632 59.3545 74.6875 75.4403 61.4153C77.967 59.3306 81.6896 59.9318 83.615 62.5819V62.5819C85.5404 65.2319 84.9374 68.9256 82.4288 71.0321C68.6195 82.628 58.8388 98.3794 54.6051 116.014C49.9084 135.577 52.3463 156.174 61.4801 174.1C70.6139 192.026 85.8443 206.105 104.432 213.804C123.019 221.504 143.744 222.318 162.878 216.101C182.013 209.884 198.301 197.043 208.813 179.889C219.325 162.735 223.371 142.393 220.224 122.521C217.076 102.65 206.942 84.5539 191.644 71.4877C177.853 59.7094 160.682 52.7151 142.694 51.4507C139.426 51.2211 136.767 48.5873 136.767 45.3116V45.3116Z" fill="#4352FF"/>
</svg>
