<svg width="273" height="273" viewBox="0 0 273 273" fill="none" xmlns="http://www.w3.org/2000/svg">
<path d="M116.206 145L121.933 137.505L122.264 137.306C122.043 137.659 121.785 137.939 121.49 138.146C121.196 138.352 120.871 138.5 120.518 138.588C120.164 138.676 119.773 138.721 119.346 138.721C118.388 138.721 117.525 138.5 116.759 138.057C115.992 137.6 115.381 136.981 114.924 136.2C114.481 135.404 114.26 134.498 114.26 133.48C114.26 132.478 114.489 131.586 114.946 130.805C115.417 130.024 116.051 129.405 116.847 128.948C117.658 128.491 118.564 128.262 119.567 128.262C120.599 128.262 121.513 128.498 122.308 128.97C123.104 129.427 123.731 130.068 124.188 130.894C124.645 131.704 124.873 132.64 124.873 133.702C124.873 134.291 124.8 134.873 124.652 135.448C124.52 136.023 124.313 136.591 124.033 137.151C123.753 137.711 123.399 138.271 122.972 138.831L118.329 145H116.206ZM119.567 137.129C120.26 137.129 120.871 136.974 121.402 136.664C121.933 136.34 122.345 135.905 122.64 135.36C122.95 134.8 123.104 134.173 123.104 133.48C123.104 132.773 122.95 132.146 122.64 131.601C122.331 131.041 121.911 130.606 121.38 130.297C120.849 129.972 120.245 129.81 119.567 129.81C118.889 129.81 118.284 129.972 117.754 130.297C117.223 130.606 116.803 131.041 116.493 131.601C116.184 132.146 116.029 132.773 116.029 133.48C116.029 134.173 116.177 134.8 116.471 135.36C116.781 135.905 117.201 136.34 117.732 136.664C118.277 136.974 118.889 137.129 119.567 137.129ZM132.87 145.265C132.015 145.265 131.219 145.118 130.482 144.823C129.76 144.528 129.126 144.108 128.581 143.563C128.035 143.017 127.623 142.369 127.343 141.617L128.691 140.954C129.03 141.809 129.583 142.487 130.35 142.988C131.131 143.474 131.971 143.718 132.87 143.718C133.592 143.718 134.234 143.548 134.794 143.209C135.369 142.87 135.818 142.413 136.143 141.838C136.467 141.249 136.629 140.593 136.629 139.87C136.629 139.119 136.459 138.455 136.12 137.88C135.796 137.306 135.354 136.856 134.794 136.532C134.234 136.193 133.6 136.023 132.892 136.023C132.17 136.023 131.499 136.193 130.88 136.532C130.276 136.856 129.834 137.254 129.554 137.726L128.161 137.46L129.399 128.528H137.735V130.075H130.04L130.725 129.478L129.731 136.51L129.045 136.2C129.561 135.566 130.165 135.117 130.858 134.851C131.551 134.571 132.258 134.431 132.981 134.431C134.042 134.431 134.978 134.682 135.789 135.183C136.6 135.669 137.233 136.325 137.69 137.151C138.162 137.962 138.398 138.868 138.398 139.87C138.398 140.887 138.155 141.809 137.668 142.634C137.196 143.445 136.541 144.086 135.7 144.558C134.875 145.029 133.932 145.265 132.87 145.265ZM142.869 145L156.356 128.528H158.501L145.014 145H142.869ZM145.279 136.885C144.483 136.885 143.761 136.694 143.112 136.311C142.463 135.913 141.94 135.389 141.542 134.741C141.159 134.092 140.967 133.37 140.967 132.574C140.967 131.778 141.159 131.056 141.542 130.407C141.94 129.744 142.463 129.221 143.112 128.837C143.761 128.454 144.483 128.262 145.279 128.262C146.075 128.262 146.797 128.454 147.446 128.837C148.094 129.221 148.61 129.744 148.993 130.407C149.377 131.056 149.568 131.778 149.568 132.574C149.568 133.37 149.377 134.092 148.993 134.741C148.61 135.389 148.094 135.913 147.446 136.311C146.797 136.694 146.075 136.885 145.279 136.885ZM145.279 135.294C145.795 135.294 146.244 135.168 146.628 134.918C147.026 134.652 147.335 134.313 147.556 133.901C147.792 133.473 147.91 133.031 147.91 132.574C147.91 132.102 147.792 131.66 147.556 131.247C147.335 130.835 147.026 130.503 146.628 130.252C146.244 129.987 145.795 129.854 145.279 129.854C144.778 129.854 144.321 129.987 143.908 130.252C143.51 130.503 143.193 130.835 142.957 131.247C142.736 131.66 142.626 132.102 142.626 132.574C142.626 133.031 142.736 133.473 142.957 133.901C143.193 134.313 143.51 134.652 143.908 134.918C144.321 135.168 144.778 135.294 145.279 135.294ZM155.892 145.265C155.096 145.265 154.374 145.074 153.725 144.69C153.076 144.292 152.553 143.769 152.155 143.121C151.772 142.472 151.58 141.75 151.58 140.954C151.58 140.158 151.772 139.436 152.155 138.787C152.553 138.124 153.076 137.6 153.725 137.217C154.374 136.834 155.096 136.642 155.892 136.642C156.688 136.642 157.41 136.834 158.059 137.217C158.707 137.6 159.223 138.124 159.606 138.787C159.99 139.436 160.181 140.158 160.181 140.954C160.181 141.75 159.99 142.472 159.606 143.121C159.223 143.769 158.707 144.292 158.059 144.69C157.41 145.074 156.688 145.265 155.892 145.265ZM155.892 143.673C156.408 143.673 156.857 143.548 157.241 143.297C157.639 143.032 157.948 142.693 158.169 142.28C158.405 141.853 158.523 141.411 158.523 140.954C158.523 140.482 158.405 140.04 158.169 139.627C157.948 139.214 157.639 138.883 157.241 138.632C156.857 138.367 156.408 138.234 155.892 138.234C155.391 138.234 154.934 138.367 154.521 138.632C154.123 138.883 153.806 139.214 153.57 139.627C153.349 140.04 153.239 140.482 153.239 140.954C153.239 141.411 153.349 141.853 153.57 142.28C153.806 142.693 154.123 143.032 154.521 143.297C154.934 143.548 155.391 143.673 155.892 143.673Z" fill="white"/>
<path d="M202.059 65.8599C240.906 102.233 242.911 163.212 206.537 202.059C170.164 240.905 109.185 242.911 70.3385 206.537C31.4916 170.163 29.4866 109.185 65.8602 70.3382C102.234 31.4913 163.212 29.4863 202.059 65.8599ZM78.4462 197.878C112.511 229.774 165.982 228.016 197.878 193.951C229.774 159.886 228.016 106.415 193.951 74.5189C159.887 42.6231 106.415 44.3813 74.5192 78.4459C42.6234 112.511 44.3816 165.982 78.4462 197.878Z" fill="#343347"/>
<path d="M136.767 45.3106C136.767 42.035 139.426 39.3605 142.695 39.5619C164.797 40.9235 185.827 49.8668 202.176 64.98C219.981 81.439 230.927 104.006 232.829 128.178C234.732 152.351 227.451 176.352 212.44 195.394C197.428 214.436 175.79 227.118 151.841 230.911C127.892 234.704 103.394 229.329 83.233 215.858C63.0722 202.387 48.731 181.81 43.0706 158.233C37.4102 134.656 40.8466 109.811 52.6944 88.6555C63.5733 69.2298 80.8097 54.2259 101.409 46.101C104.456 44.8991 107.811 46.6212 108.824 49.7365V49.7365C109.836 52.8519 108.121 56.1783 105.084 57.4065C87.3204 64.5908 72.4642 77.6308 63.0441 94.4516C52.6549 113.003 49.6415 134.789 54.6051 155.464C59.5687 176.139 72.1444 194.182 89.8234 205.995C107.502 217.808 128.985 222.521 149.985 219.195C170.986 215.869 189.961 204.748 203.124 188.05C216.287 171.352 222.672 150.306 221.004 129.109C219.335 107.912 209.737 88.1236 194.124 73.6907C179.967 60.6041 161.808 52.7931 142.694 51.4497C139.426 51.2201 136.767 48.5863 136.767 45.3106V45.3106Z" fill="#4352FF"/>
</svg>
