<svg width="189" height="170" viewBox="0 0 189 170" fill="none" xmlns="http://www.w3.org/2000/svg">
<path d="M124.887 84.6747C124.887 107.989 120.791 129.064 114.195 144.286C110.896 151.898 106.986 158.016 102.677 162.222C98.3708 166.425 93.7015 168.688 88.8564 168.688C84.0114 168.688 79.3421 166.425 75.0362 162.222C70.7273 158.016 66.8166 151.898 63.518 144.286C56.9218 129.064 52.8256 107.989 52.8256 84.6747C52.8256 61.3609 56.9218 40.2857 63.518 25.0637C66.8166 17.4516 70.7273 11.3334 75.0362 7.12756C79.3421 2.9247 84.0114 0.661521 88.8564 0.661521C93.7015 0.661521 98.3708 2.9247 102.677 7.12756C106.986 11.3334 110.896 17.4516 114.195 25.0637C120.791 40.2857 124.887 61.3609 124.887 84.6747Z" stroke="url(#paint0_linear_138_506)" stroke-width="1.32304"/>
<path d="M130.532 84.6747C130.532 107.989 126.436 129.064 119.839 144.286C116.541 151.898 112.63 158.016 108.321 162.222C104.015 166.425 99.346 168.688 94.501 168.688C89.6559 168.688 84.9866 166.425 80.6807 162.222C76.3718 158.016 72.4611 151.898 69.1625 144.286C62.5663 129.064 58.4701 107.989 58.4701 84.6747C58.4701 61.3609 62.5663 40.2857 69.1625 25.0637C72.4611 17.4516 76.3718 11.3334 80.6807 7.12756C84.9866 2.9247 89.6559 0.661521 94.501 0.661521C99.346 0.661521 104.015 2.9247 108.321 7.12756C112.63 11.3334 116.541 17.4516 119.839 25.0637C126.436 40.2857 130.532 61.3609 130.532 84.6747Z" stroke="url(#paint1_linear_138_506)" stroke-width="1.32304"/>
<path d="M136.178 84.6747C136.178 107.989 132.082 129.064 125.486 144.286C122.187 151.898 118.277 158.016 113.968 162.222C109.662 166.425 104.993 168.688 100.147 168.688C95.3024 168.688 90.6331 166.425 86.3272 162.222C82.0183 158.016 78.1076 151.898 74.809 144.286C68.2128 129.064 64.1166 107.989 64.1166 84.6747C64.1166 61.3609 68.2128 40.2857 74.809 25.0637C78.1076 17.4516 82.0183 11.3334 86.3272 7.12756C90.6331 2.9247 95.3024 0.661521 100.147 0.661521C104.993 0.661521 109.662 2.9247 113.968 7.12756C118.277 11.3334 122.187 17.4516 125.486 25.0637C132.082 40.2857 136.178 61.3609 136.178 84.6747Z" stroke="url(#paint2_linear_138_506)" stroke-width="1.32304"/>
<path d="M109.694 58.3599C129.884 70.0168 146.088 84.1018 155.973 97.4253C160.915 104.088 164.259 110.534 165.747 116.368C167.233 122.199 166.859 127.374 164.436 131.57C162.014 135.766 157.719 138.678 151.926 140.306C146.13 141.935 138.876 142.262 130.634 141.313C114.153 139.414 93.8536 132.424 73.6632 120.767C53.4728 109.11 37.2692 95.0252 27.3847 81.7017C22.4417 75.0391 19.0985 68.5932 17.6107 62.7586C16.1238 56.9282 16.4985 51.7528 18.921 47.5569C21.3436 43.361 25.6382 40.4488 31.4309 38.8212C37.2277 37.1925 44.4816 36.8649 52.7232 37.8142C69.2039 39.7128 89.5037 46.7029 109.694 58.3599Z" stroke="url(#paint3_linear_138_506)" stroke-width="1.32304"/>
<path d="M112.516 53.4714C132.707 65.1284 148.91 79.2134 158.795 92.5369C163.738 99.1995 167.081 105.645 168.569 111.48C170.056 117.31 169.681 122.486 167.258 126.682C164.836 130.878 160.541 133.79 154.749 135.417C148.952 137.046 141.698 137.374 133.456 136.424C116.976 134.526 96.6758 127.536 76.4855 115.879C56.2951 104.222 40.0915 90.1368 30.207 76.8133C25.264 70.1506 21.9208 63.7047 20.4329 57.8702C18.9461 52.0398 19.3208 46.8644 21.7433 42.6685C24.1658 38.4725 28.4605 35.5604 34.2532 33.9328C40.05 32.3041 47.3039 31.9764 55.5454 32.9258C72.0262 34.8243 92.3259 41.8145 112.516 53.4714Z" stroke="url(#paint4_linear_138_506)" stroke-width="1.32304"/>
<path d="M115.337 48.5823C135.527 60.2392 151.731 74.3242 161.615 87.6477C166.558 94.3104 169.901 100.756 171.389 106.591C172.876 112.421 172.501 117.597 170.079 121.793C167.656 125.988 163.362 128.901 157.569 130.528C151.772 132.157 144.518 132.485 136.277 131.535C119.796 129.637 99.4961 122.646 79.3058 110.99C59.1154 99.3326 42.9118 85.2476 33.0273 71.9241C28.0843 65.2615 24.7411 58.8156 23.2532 52.981C21.7664 47.1506 22.1411 41.9753 24.5636 37.7793C26.9861 33.5834 31.2808 30.6712 37.0735 29.0436C42.8703 27.4149 50.1242 27.0873 58.3657 28.0367C74.8465 29.9352 95.1462 36.9254 115.337 48.5823Z" stroke="url(#paint5_linear_138_506)" stroke-width="1.32304"/>
<path d="M79.306 58.3599C59.1156 70.0168 42.912 84.1018 33.0275 97.4253C28.0845 104.088 24.7413 110.534 23.2534 116.368C21.7666 122.199 22.1413 127.374 24.5638 131.57C26.9863 135.766 31.281 138.678 37.0737 140.306C42.8705 141.935 50.1244 142.262 58.3659 141.313C74.8467 139.414 95.1464 132.424 115.337 120.767C135.527 109.11 151.731 95.0252 161.615 81.7017C166.558 75.0391 169.901 68.5932 171.389 62.7586C172.876 56.9282 172.501 51.7528 170.079 47.5569C167.656 43.361 163.362 40.4488 157.569 38.8212C151.772 37.1925 144.518 36.8649 136.277 37.8142C119.796 39.7128 99.4963 46.7029 79.306 58.3599Z" stroke="url(#paint6_linear_138_506)" stroke-width="1.32304"/>
<path d="M76.4837 53.4714C56.2933 65.1284 40.0898 79.2134 30.2052 92.5369C25.2622 99.1995 21.919 105.645 20.4312 111.48C18.9443 117.31 19.319 122.486 21.7415 126.682C24.1641 130.878 28.4587 133.79 34.2514 135.417C40.0482 137.046 47.3021 137.374 55.5437 136.424C72.0244 134.526 92.3242 127.536 112.515 115.879C132.705 104.222 148.908 90.1368 158.793 76.8133C163.736 70.1506 167.079 63.7047 168.567 57.8702C170.054 52.0398 169.679 46.8644 167.257 42.6685C164.834 38.4725 160.54 35.5604 154.747 33.9328C148.95 32.3041 141.696 31.9764 133.455 32.9258C116.974 34.8243 96.6741 41.8145 76.4837 53.4714Z" stroke="url(#paint7_linear_138_506)" stroke-width="1.32304"/>
<path d="M73.6634 48.5823C53.473 60.2392 37.2694 74.3242 27.3849 87.6477C22.4419 94.3104 19.0987 100.756 17.6109 106.591C16.124 112.421 16.4987 117.597 18.9212 121.793C21.3437 125.988 25.6384 128.901 31.4311 130.528C37.2279 132.157 44.4818 132.485 52.7233 131.535C69.2041 129.637 89.5039 122.646 109.694 110.99C129.885 99.3326 146.088 85.2476 155.973 71.9241C160.916 65.2615 164.259 58.8156 165.747 52.981C167.234 47.1506 166.859 41.9753 164.436 37.7793C162.014 33.5834 157.719 30.6712 151.926 29.0436C146.13 27.4149 138.876 27.0873 130.634 28.0367C114.154 29.9352 93.8538 36.9254 73.6634 48.5823Z" stroke="url(#paint8_linear_138_506)" stroke-width="1.32304"/>
<defs>
<linearGradient id="paint0_linear_138_506" x1="88.8564" y1="0" x2="128.777" y2="186.232" gradientUnits="userSpaceOnUse">
<stop stop-color="white"/>
<stop offset="1" stop-color="white" stop-opacity="0"/>
</linearGradient>
<linearGradient id="paint1_linear_138_506" x1="94.501" y1="0" x2="134.421" y2="186.232" gradientUnits="userSpaceOnUse">
<stop stop-color="white"/>
<stop offset="1" stop-color="white" stop-opacity="0"/>
</linearGradient>
<linearGradient id="paint2_linear_138_506" x1="100.147" y1="0" x2="140.068" y2="186.232" gradientUnits="userSpaceOnUse">
<stop stop-color="white"/>
<stop offset="1" stop-color="white" stop-opacity="0"/>
</linearGradient>
<linearGradient id="paint3_linear_138_506" x1="18.3481" y1="47.2261" x2="199.589" y2="105.77" gradientUnits="userSpaceOnUse">
<stop stop-color="white"/>
<stop offset="1" stop-color="white" stop-opacity="0"/>
</linearGradient>
<linearGradient id="paint4_linear_138_506" x1="21.1704" y1="42.3377" x2="202.412" y2="100.882" gradientUnits="userSpaceOnUse">
<stop stop-color="white"/>
<stop offset="1" stop-color="white" stop-opacity="0"/>
</linearGradient>
<linearGradient id="paint5_linear_138_506" x1="23.9907" y1="37.4486" x2="205.232" y2="95.9925" gradientUnits="userSpaceOnUse">
<stop stop-color="white"/>
<stop offset="1" stop-color="white" stop-opacity="0"/>
</linearGradient>
<linearGradient id="paint6_linear_138_506" x1="170.652" y1="47.2261" x2="-10.5895" y2="105.77" gradientUnits="userSpaceOnUse">
<stop stop-color="white"/>
<stop offset="1" stop-color="white" stop-opacity="0"/>
</linearGradient>
<linearGradient id="paint7_linear_138_506" x1="167.83" y1="42.3377" x2="-13.4118" y2="100.882" gradientUnits="userSpaceOnUse">
<stop stop-color="white"/>
<stop offset="1" stop-color="white" stop-opacity="0"/>
</linearGradient>
<linearGradient id="paint8_linear_138_506" x1="165.009" y1="37.4486" x2="-16.2321" y2="95.9925" gradientUnits="userSpaceOnUse">
<stop stop-color="white"/>
<stop offset="1" stop-color="white" stop-opacity="0"/>
</linearGradient>
</defs>
</svg>
