<svg width="156" height="148" viewBox="0 0 156 148" fill="none" xmlns="http://www.w3.org/2000/svg">
<path fill-rule="evenodd" clip-rule="evenodd" d="M14.8967 28.2655L53.8967 0H102.103L141.103 28.2655L156 74L141.103 119.735L102.103 148H53.8967L14.8967 119.735L0 74L14.8967 28.2655ZM78 7.81238L59.8982 1.94521L96.1018 1.94521L78 7.81238ZM74.8448 8.83503L54.6415 2.28673L42.1552 19.4304L74.8448 8.83503ZM43.0425 21.1881L75.8815 10.5443L63.2204 27.9858L43.0425 21.1881ZM39.5982 22.9412L18.5316 51.8655L39.5106 45.1606L39.5982 22.9412ZM39.5025 47.2058L18.1595 54.0271L31.238 72.0434L39.4492 60.7319L39.5025 47.2058ZM41.4099 58.0309L41.455 46.5818L52.2183 43.1418L41.4099 58.0309ZM39.4361 64.0665L32.4417 73.7016L39.3606 83.2327L39.4361 64.0665ZM41.3 85.9045L41.3967 61.3656L55.3531 42.1399L77.8233 34.9584L101.635 42.9803L115.56 62.1624L115.752 86.3994L92.9481 116.967L55.0585 104.858L41.3 85.9045ZM39.3476 86.5314L31.2379 75.3599L18.3431 93.1233L39.2952 99.8196L39.3476 86.5314ZM41.2428 100.442L41.287 89.2031L51.9237 103.856L41.2428 100.442ZM39.2872 101.86L17.6693 94.9506L39.1979 124.509L39.2872 101.86ZM41.1413 126.196L41.2347 102.482L53.8544 106.515L76.448 137.639L41.1413 126.196ZM104.822 44.054L115.534 58.8092L115.445 47.6326L104.822 44.054ZM115.429 45.5739L102.85 41.3362L94.3787 29.6672L115.25 22.9968L115.429 45.5739ZM117.4 48.2913L117.505 61.5252L125.792 72.9412L138.803 55.5014L117.4 48.2913ZM138.562 53.3672L117.384 46.2326L117.208 24.0483L138.562 53.3672ZM99.6626 40.2626L80.9508 33.9588L92.4246 30.2918L99.6626 40.2626ZM77.8394 32.9107L91.221 28.6339L78.1893 10.6819L65.1549 28.6374L77.8394 32.9107ZM62.0228 29.6355L54.149 40.4821L41.4631 44.5366L41.549 22.7381L62.0228 29.6355ZM63.9573 30.2871L74.7119 33.9102L57.2838 39.4802L63.9573 30.2871ZM94.9109 117.594L115.778 89.6234L116.053 124.351L94.9109 117.594ZM117.707 87.0369L117.991 122.876L138.92 94.1417L138.825 94.2104L125.771 76.2282L117.707 87.0369ZM117.532 64.8784L117.682 83.8129L124.572 74.5769L117.532 64.8784ZM80.6135 10.7048L113.732 21.4392L93.1752 28.0093L80.6135 10.7048ZM16.8466 55.535V91.8683L30.0342 73.7017L16.8466 55.535ZM80.0861 137.466L115.143 126.103L93.6804 119.244L80.0861 137.466ZM91.7177 118.616L78.2 136.736L56.9892 107.517L91.7177 118.616ZM126.991 74.5926L139.153 91.3468V58.2898L126.991 74.5926ZM39 20.4531L50.1876 5.09262L20.8982 26.3202L39 20.4531ZM20.8982 121.68L50.1876 142.907L39 127.547L20.8982 121.68ZM37.05 124.87L16.8466 97.1303V118.321L37.05 124.87ZM14.8966 94.453V113.439L3.70912 79.0926L14.8966 94.453ZM14.8966 56.8564L2.41033 74L14.8966 91.1436V56.8564ZM14.8966 53.547L3.70912 68.9074L14.8966 34.5605V53.547ZM16.8466 50.8697V29.6788L37.05 23.1304L16.8466 50.8697ZM42.1552 128.57L54.6415 145.713L74.8448 139.165L42.1552 128.57ZM78 140.188L59.8982 146.055H96.1018L78 140.188ZM105.812 142.908L135.102 121.68L117 127.547L105.812 142.908ZM113.845 128.57L81.1551 139.165L101.358 145.713L113.845 128.57ZM118.95 124.87L139.153 118.321V97.1303L118.95 124.87ZM141.103 94.453V113.44L152.291 79.0924L141.103 94.453ZM152.291 68.9076L141.103 34.5603V53.547L152.291 68.9076ZM141.103 91.1436L153.59 74L141.103 56.8564V91.1436ZM139.153 50.8697V29.6788L118.95 23.1304L139.153 50.8697ZM117 20.4531L135.102 26.3203L105.812 5.09249L117 20.4531ZM113.845 19.4304L81.1551 8.83503L101.358 2.28673L113.845 19.4304Z" fill="url(#paint0_radial_138_406)"/>
<defs>
<radialGradient id="paint0_radial_138_406" cx="0" cy="0" r="1" gradientUnits="userSpaceOnUse" gradientTransform="translate(80.1393 73.2154) rotate(57.1244) scale(88.013 92.6362)">
<stop stop-color="white"/>
<stop offset="1" stop-color="white" stop-opacity="0"/>
</radialGradient>
</defs>
</svg>
