<svg width="162" height="162" viewBox="0 0 162 162" fill="none" xmlns="http://www.w3.org/2000/svg">
<path d="M121 61L122.443 58.5H119.557L121 61ZM41 121L39.6262 123.539L42.5118 123.459L41 121ZM120.75 41V58.75H121.25V41H120.75ZM120.75 111V121H121.25V111H120.75ZM120.75 86V111H121.25V86H120.75ZM41.25 81V41H40.75V81H41.25ZM41.25 101V81H40.75V101H41.25ZM81 160.75C59.7961 160.75 42.4697 144.147 41.3117 123.233L40.8124 123.261C41.985 144.439 59.5292 161.25 81 161.25V160.75ZM81 161.25C103.229 161.25 121.25 143.229 121.25 121H120.75C120.75 142.953 102.953 160.75 81 160.75V161.25ZM81 1.25C102.953 1.25 120.75 19.0467 120.75 41H121.25C121.25 18.7705 103.229 0.75 81 0.75V1.25ZM81 0.75C58.7705 0.75 40.75 18.7705 40.75 41H41.25C41.25 19.0467 59.0467 1.25 81 1.25V0.75Z" fill="url(#paint0_linear_296_185)"/>
<path d="M61 41L58.5 39.5566V42.4434L61 41ZM121 121L123.539 122.374L123.459 119.488L121 121ZM41 41.25H58.75V40.75H41V41.25ZM111 41.25L121 41.25V40.75L111 40.75V41.25ZM86 41.25H111V40.75H86V41.25ZM81 120.75H41V121.25H81V120.75ZM101 120.75H81V121.25H101V120.75ZM160.75 81C160.75 102.204 144.147 119.53 123.233 120.688L123.261 121.188C144.439 120.015 161.25 102.471 161.25 81H160.75ZM161.25 81C161.25 58.7705 143.229 40.75 121 40.75V41.25C142.953 41.25 160.75 59.0467 160.75 81H161.25ZM1.25 81C1.25 59.0467 19.0467 41.25 41 41.25V40.75C18.7705 40.75 0.75 58.7705 0.75 81H1.25ZM0.75 81C0.75 103.229 18.7705 121.25 41 121.25V120.75C19.0467 120.75 1.25 102.953 1.25 81H0.75Z" fill="url(#paint1_linear_296_185)"/>
<path d="M81.0004 51.5808L87.7017 72.0838H109.387L91.8433 84.7553L98.5446 105.258L81.0004 92.5867L63.4562 105.258L70.1575 84.7553L52.6133 72.0838H74.2991L81.0004 51.5808Z" fill="url(#paint2_radial_296_185)"/>
<defs>
<linearGradient id="paint0_linear_296_185" x1="51" y1="0.999999" x2="147" y2="173" gradientUnits="userSpaceOnUse">
<stop stop-color="white"/>
<stop offset="1" stop-color="white" stop-opacity="0"/>
</linearGradient>
<linearGradient id="paint1_linear_296_185" x1="0.999999" y1="111" x2="173" y2="15" gradientUnits="userSpaceOnUse">
<stop stop-color="white"/>
<stop offset="1" stop-color="white" stop-opacity="0"/>
</linearGradient>
<radialGradient id="paint2_radial_296_185" cx="0" cy="0" r="1" gradientUnits="userSpaceOnUse" gradientTransform="translate(81.0004 81.253) rotate(90) scale(47.8051 48.0884)">
<stop stop-color="white"/>
<stop offset="1" stop-color="white" stop-opacity="0"/>
</radialGradient>
</defs>
</svg>
