<svg width="131" height="131" viewBox="0 0 131 131" fill="none" xmlns="http://www.w3.org/2000/svg">
<path fill-rule="evenodd" clip-rule="evenodd" d="M26 39.3C26 17.5952 43.6848 0 65.5 0C87.3152 0 105 17.5952 105 39.3V91.7C105 113.405 87.3152 131 65.5 131C43.6848 131 26 113.405 26 91.7V39.3ZM39.1667 88.425C39.1667 102.895 50.9565 114.625 65.5 114.625C80.0435 114.625 91.8333 102.895 91.8333 88.425V42.575C91.8333 28.1051 80.0435 16.375 65.5 16.375C50.9565 16.375 39.1667 28.1051 39.1667 42.575V88.425Z" fill="url(#paint0_linear_296_190)"/>
<path fill-rule="evenodd" clip-rule="evenodd" d="M39.3 105C17.5952 105 0 87.3152 0 65.5C0 43.6848 17.5952 26 39.3 26H91.7C113.405 26 131 43.6848 131 65.5C131 87.3152 113.405 105 91.7 105H39.3ZM88.425 91.8333C102.895 91.8333 114.625 80.0435 114.625 65.5C114.625 50.9565 102.895 39.1667 88.425 39.1667H42.575C28.1051 39.1667 16.375 50.9565 16.375 65.5C16.375 80.0435 28.1051 91.8333 42.575 91.8333H88.425Z" fill="url(#paint1_linear_296_190)"/>
<defs>
<linearGradient id="paint0_linear_296_190" x1="66" y1="71" x2="58.2423" y2="138.103" gradientUnits="userSpaceOnUse">
<stop stop-color="white"/>
<stop offset="1" stop-color="white" stop-opacity="0"/>
</linearGradient>
<linearGradient id="paint1_linear_296_190" x1="106" y1="93" x2="114.795" y2="13.5286" gradientUnits="userSpaceOnUse">
<stop stop-color="white"/>
<stop offset="1" stop-color="white" stop-opacity="0"/>
</linearGradient>
</defs>
</svg>
