<svg width="136" height="117" viewBox="0 0 136 117" fill="none" xmlns="http://www.w3.org/2000/svg">
<rect width="45.0333" height="45.0333" transform="matrix(0.5 -0.866025 1 2.20305e-08 0 117)" fill="url(#paint0_linear_138_532)"/>
<rect width="45.0333" height="45.0333" transform="matrix(0.5 0.866025 1 -2.20305e-08 0 39)" fill="url(#paint1_linear_138_532)"/>
<rect width="45.0333" height="45.0333" transform="matrix(0.5 -0.866025 1 2.20305e-08 0 39)" fill="url(#paint2_linear_138_532)"/>
<rect width="45.0333" height="45.0333" transform="matrix(0.5 -0.866025 1 2.20305e-08 33.7754 117)" fill="url(#paint3_linear_138_532)"/>
<rect width="45.0333" height="45.0333" transform="matrix(0.5 0.866025 1 -2.20305e-08 33.7754 39.0002)" fill="url(#paint4_linear_138_532)"/>
<rect width="45.0333" height="45.0333" transform="matrix(0.5 -0.866025 1 2.20305e-08 33.7754 39.0002)" fill="url(#paint5_linear_138_532)"/>
<rect width="45.0333" height="45.0333" transform="matrix(0.5 -0.866025 1 2.20305e-08 67.5488 117)" fill="url(#paint6_linear_138_532)"/>
<rect width="45.0333" height="45.0333" transform="matrix(0.5 0.866025 1 -2.20305e-08 67.5488 39.0002)" fill="url(#paint7_linear_138_532)"/>
<rect width="45.0333" height="45.0333" transform="matrix(0.5 -0.866025 1 2.20305e-08 67.5488 39.0002)" fill="url(#paint8_linear_138_532)"/>
<defs>
<linearGradient id="paint0_linear_138_532" x1="22.5167" y1="0" x2="22.5167" y2="45.0333" gradientUnits="userSpaceOnUse">
<stop stop-color="white"/>
<stop offset="1" stop-color="white" stop-opacity="0"/>
</linearGradient>
<linearGradient id="paint1_linear_138_532" x1="22.5167" y1="0" x2="22.5167" y2="45.0333" gradientUnits="userSpaceOnUse">
<stop stop-color="white"/>
<stop offset="1" stop-color="white" stop-opacity="0"/>
</linearGradient>
<linearGradient id="paint2_linear_138_532" x1="22.5167" y1="0" x2="22.5167" y2="45.0333" gradientUnits="userSpaceOnUse">
<stop stop-color="white"/>
<stop offset="1" stop-color="white" stop-opacity="0"/>
</linearGradient>
<linearGradient id="paint3_linear_138_532" x1="22.5167" y1="0" x2="22.5167" y2="45.0333" gradientUnits="userSpaceOnUse">
<stop stop-color="white"/>
<stop offset="1" stop-color="white" stop-opacity="0"/>
</linearGradient>
<linearGradient id="paint4_linear_138_532" x1="22.5167" y1="0" x2="22.5167" y2="45.0333" gradientUnits="userSpaceOnUse">
<stop stop-color="white"/>
<stop offset="1" stop-color="white" stop-opacity="0"/>
</linearGradient>
<linearGradient id="paint5_linear_138_532" x1="22.5167" y1="0" x2="22.5167" y2="45.0333" gradientUnits="userSpaceOnUse">
<stop stop-color="white"/>
<stop offset="1" stop-color="white" stop-opacity="0"/>
</linearGradient>
<linearGradient id="paint6_linear_138_532" x1="22.5167" y1="0" x2="22.5167" y2="45.0333" gradientUnits="userSpaceOnUse">
<stop stop-color="white"/>
<stop offset="1" stop-color="white" stop-opacity="0"/>
</linearGradient>
<linearGradient id="paint7_linear_138_532" x1="22.5167" y1="0" x2="22.5167" y2="45.0333" gradientUnits="userSpaceOnUse">
<stop stop-color="white"/>
<stop offset="1" stop-color="white" stop-opacity="0"/>
</linearGradient>
<linearGradient id="paint8_linear_138_532" x1="22.5167" y1="0" x2="22.5167" y2="45.0333" gradientUnits="userSpaceOnUse">
<stop stop-color="white"/>
<stop offset="1" stop-color="white" stop-opacity="0"/>
</linearGradient>
</defs>
</svg>
