<svg width="161" height="160" viewBox="0 0 161 160" fill="none" xmlns="http://www.w3.org/2000/svg">
<circle cx="122.054" cy="37.7178" r="14.5735" transform="rotate(-90 122.054 37.7178)" fill="url(#paint0_linear_138_450)"/>
<circle cx="37.9035" cy="121.866" r="14.5735" transform="rotate(-90 37.9035 121.866)" fill="url(#paint1_linear_138_450)"/>
<circle cx="38.1711" cy="37.9822" r="14.5735" transform="rotate(-90 38.1711 37.9822)" fill="url(#paint2_linear_138_450)"/>
<circle cx="122.054" cy="121.866" r="14.5735" transform="rotate(-90 122.054 121.866)" fill="url(#paint3_linear_138_450)"/>
<circle cx="20.61" cy="79.7375" r="14.5735" transform="rotate(-45 20.61 79.7375)" fill="url(#paint4_linear_138_450)"/>
<circle cx="80.1119" cy="20.6101" r="14.5735" transform="rotate(-45 80.1119 20.6101)" fill="url(#paint5_linear_138_450)"/>
<circle cx="80.1119" cy="139.24" r="14.5735" transform="rotate(-45 80.1119 139.24)" fill="url(#paint6_linear_138_450)"/>
<circle cx="139.614" cy="79.7375" r="14.5735" transform="rotate(-45 139.614 79.7375)" fill="url(#paint7_linear_138_450)"/>
<circle cx="51.2347" cy="108.621" r="9.97103" transform="rotate(-90 51.2347 108.621)" fill="url(#paint8_linear_138_450)"/>
<circle cx="51.4163" cy="51.2284" r="9.97103" transform="rotate(-90 51.4163 51.2284)" fill="url(#paint9_linear_138_450)"/>
<circle cx="108.809" cy="108.621" r="9.97103" transform="rotate(-90 108.809 108.621)" fill="url(#paint10_linear_138_450)"/>
<circle cx="39.4019" cy="79.7969" r="9.97103" transform="rotate(-45 39.4019 79.7969)" fill="url(#paint11_linear_138_450)"/>
<circle cx="80.1129" cy="39.3423" r="9.97103" transform="rotate(-45 80.1129 39.3423)" fill="url(#paint12_linear_138_450)"/>
<circle cx="80.1129" cy="120.508" r="9.97103" transform="rotate(-45 80.1129 120.508)" fill="url(#paint13_linear_138_450)"/>
<circle cx="120.822" cy="79.7969" r="9.97103" transform="rotate(-45 120.822 79.7969)" fill="url(#paint14_linear_138_450)"/>
<circle cx="108.809" cy="51.0475" r="9.97103" transform="rotate(-90 108.809 51.0475)" fill="url(#paint15_linear_138_450)"/>
<circle cx="59.8457" cy="100.065" r="6.998" transform="rotate(-90 59.8457 100.065)" fill="url(#paint16_linear_138_450)"/>
<circle cx="59.9707" cy="59.785" r="6.998" transform="rotate(-90 59.9707 59.785)" fill="url(#paint17_linear_138_450)"/>
<circle cx="100.252" cy="100.065" r="6.998" transform="rotate(-90 100.252 100.065)" fill="url(#paint18_linear_138_450)"/>
<circle cx="51.5392" cy="79.8352" r="6.998" transform="rotate(-45 51.5392 79.8352)" fill="url(#paint19_linear_138_450)"/>
<circle cx="80.1115" cy="51.4431" r="6.998" transform="rotate(-45 80.1115 51.4431)" fill="url(#paint20_linear_138_450)"/>
<circle cx="80.1115" cy="108.408" r="6.998" transform="rotate(-45 80.1115 108.408)" fill="url(#paint21_linear_138_450)"/>
<circle cx="108.684" cy="79.8352" r="6.998" transform="rotate(-45 108.684 79.8352)" fill="url(#paint22_linear_138_450)"/>
<circle cx="100.252" cy="59.658" r="6.998" transform="rotate(-90 100.252 59.658)" fill="url(#paint23_linear_138_450)"/>
<defs>
<linearGradient id="paint0_linear_138_450" x1="122.054" y1="23.1443" x2="122.054" y2="52.2913" gradientUnits="userSpaceOnUse">
<stop stop-color="white"/>
<stop offset="1" stop-color="#C4C4C4" stop-opacity="0"/>
</linearGradient>
<linearGradient id="paint1_linear_138_450" x1="37.9035" y1="107.293" x2="37.9035" y2="136.44" gradientUnits="userSpaceOnUse">
<stop stop-color="white"/>
<stop offset="1" stop-color="#C4C4C4" stop-opacity="0"/>
</linearGradient>
<linearGradient id="paint2_linear_138_450" x1="38.1711" y1="23.4087" x2="38.1711" y2="52.5557" gradientUnits="userSpaceOnUse">
<stop stop-color="white"/>
<stop offset="1" stop-color="#C4C4C4" stop-opacity="0"/>
</linearGradient>
<linearGradient id="paint3_linear_138_450" x1="122.054" y1="107.293" x2="122.054" y2="136.44" gradientUnits="userSpaceOnUse">
<stop stop-color="white"/>
<stop offset="1" stop-color="#C4C4C4" stop-opacity="0"/>
</linearGradient>
<linearGradient id="paint4_linear_138_450" x1="20.61" y1="65.1641" x2="20.61" y2="94.311" gradientUnits="userSpaceOnUse">
<stop stop-color="white"/>
<stop offset="1" stop-color="#C4C4C4" stop-opacity="0"/>
</linearGradient>
<linearGradient id="paint5_linear_138_450" x1="80.1119" y1="6.03665" x2="80.1119" y2="35.1836" gradientUnits="userSpaceOnUse">
<stop stop-color="white"/>
<stop offset="1" stop-color="#C4C4C4" stop-opacity="0"/>
</linearGradient>
<linearGradient id="paint6_linear_138_450" x1="80.1119" y1="124.667" x2="80.1119" y2="153.813" gradientUnits="userSpaceOnUse">
<stop stop-color="white"/>
<stop offset="1" stop-color="#C4C4C4" stop-opacity="0"/>
</linearGradient>
<linearGradient id="paint7_linear_138_450" x1="139.614" y1="65.1641" x2="139.614" y2="94.311" gradientUnits="userSpaceOnUse">
<stop stop-color="white"/>
<stop offset="1" stop-color="#C4C4C4" stop-opacity="0"/>
</linearGradient>
<linearGradient id="paint8_linear_138_450" x1="51.2347" y1="98.65" x2="51.2347" y2="118.592" gradientUnits="userSpaceOnUse">
<stop stop-color="white"/>
<stop offset="1" stop-color="#C4C4C4" stop-opacity="0"/>
</linearGradient>
<linearGradient id="paint9_linear_138_450" x1="51.4163" y1="41.2574" x2="51.4163" y2="61.1995" gradientUnits="userSpaceOnUse">
<stop stop-color="white"/>
<stop offset="1" stop-color="#C4C4C4" stop-opacity="0"/>
</linearGradient>
<linearGradient id="paint10_linear_138_450" x1="108.809" y1="98.65" x2="108.809" y2="118.592" gradientUnits="userSpaceOnUse">
<stop stop-color="white"/>
<stop offset="1" stop-color="#C4C4C4" stop-opacity="0"/>
</linearGradient>
<linearGradient id="paint11_linear_138_450" x1="39.4019" y1="69.8258" x2="39.4019" y2="89.7679" gradientUnits="userSpaceOnUse">
<stop stop-color="white"/>
<stop offset="1" stop-color="#C4C4C4" stop-opacity="0"/>
</linearGradient>
<linearGradient id="paint12_linear_138_450" x1="80.1129" y1="29.3713" x2="80.1129" y2="49.3133" gradientUnits="userSpaceOnUse">
<stop stop-color="white"/>
<stop offset="1" stop-color="#C4C4C4" stop-opacity="0"/>
</linearGradient>
<linearGradient id="paint13_linear_138_450" x1="80.1129" y1="110.537" x2="80.1129" y2="130.479" gradientUnits="userSpaceOnUse">
<stop stop-color="white"/>
<stop offset="1" stop-color="#C4C4C4" stop-opacity="0"/>
</linearGradient>
<linearGradient id="paint14_linear_138_450" x1="120.822" y1="69.8258" x2="120.822" y2="89.7679" gradientUnits="userSpaceOnUse">
<stop stop-color="white"/>
<stop offset="1" stop-color="#C4C4C4" stop-opacity="0"/>
</linearGradient>
<linearGradient id="paint15_linear_138_450" x1="108.809" y1="41.0765" x2="108.809" y2="61.0186" gradientUnits="userSpaceOnUse">
<stop stop-color="white"/>
<stop offset="1" stop-color="#C4C4C4" stop-opacity="0"/>
</linearGradient>
<linearGradient id="paint16_linear_138_450" x1="59.8457" y1="93.0672" x2="59.8457" y2="107.063" gradientUnits="userSpaceOnUse">
<stop stop-color="white"/>
<stop offset="1" stop-color="#C4C4C4" stop-opacity="0"/>
</linearGradient>
<linearGradient id="paint17_linear_138_450" x1="59.9707" y1="52.787" x2="59.9707" y2="66.783" gradientUnits="userSpaceOnUse">
<stop stop-color="white"/>
<stop offset="1" stop-color="#C4C4C4" stop-opacity="0"/>
</linearGradient>
<linearGradient id="paint18_linear_138_450" x1="100.252" y1="93.0672" x2="100.252" y2="107.063" gradientUnits="userSpaceOnUse">
<stop stop-color="white"/>
<stop offset="1" stop-color="#C4C4C4" stop-opacity="0"/>
</linearGradient>
<linearGradient id="paint19_linear_138_450" x1="51.5392" y1="72.8372" x2="51.5392" y2="86.8332" gradientUnits="userSpaceOnUse">
<stop stop-color="white"/>
<stop offset="1" stop-color="#C4C4C4" stop-opacity="0"/>
</linearGradient>
<linearGradient id="paint20_linear_138_450" x1="80.1115" y1="44.4451" x2="80.1115" y2="58.4411" gradientUnits="userSpaceOnUse">
<stop stop-color="white"/>
<stop offset="1" stop-color="#C4C4C4" stop-opacity="0"/>
</linearGradient>
<linearGradient id="paint21_linear_138_450" x1="80.1115" y1="101.41" x2="80.1115" y2="115.406" gradientUnits="userSpaceOnUse">
<stop stop-color="white"/>
<stop offset="1" stop-color="#C4C4C4" stop-opacity="0"/>
</linearGradient>
<linearGradient id="paint22_linear_138_450" x1="108.684" y1="72.8372" x2="108.684" y2="86.8332" gradientUnits="userSpaceOnUse">
<stop stop-color="white"/>
<stop offset="1" stop-color="#C4C4C4" stop-opacity="0"/>
</linearGradient>
<linearGradient id="paint23_linear_138_450" x1="100.252" y1="52.66" x2="100.252" y2="66.656" gradientUnits="userSpaceOnUse">
<stop stop-color="white"/>
<stop offset="1" stop-color="#C4C4C4" stop-opacity="0"/>
</linearGradient>
</defs>
</svg>
