<svg width="162" height="168" viewBox="0 0 162 168" fill="none" xmlns="http://www.w3.org/2000/svg">
<rect width="93.3333" height="93.3333" transform="matrix(0.866025 0.5 -0.866025 0.5 80.8281 74.6665)" fill="url(#paint0_linear_138_507)"/>
<rect width="93.3333" height="93.3333" transform="matrix(0.866025 0.5 -0.866025 0.5 80.8281 56)" fill="url(#paint1_linear_138_507)"/>
<rect width="93.3333" height="93.3333" transform="matrix(0.866025 0.5 -0.866025 0.5 80.8281 37.3333)" fill="url(#paint2_linear_138_507)"/>
<rect width="93.3333" height="93.3333" transform="matrix(0.866025 0.5 -0.866025 0.5 80.8281 18.6667)" fill="url(#paint3_linear_138_507)"/>
<rect width="93.3333" height="93.3333" transform="matrix(0.866025 0.5 -0.866025 0.5 80.8281 0)" fill="url(#paint4_linear_138_507)"/>
<defs>
<linearGradient id="paint0_linear_138_507" x1="104.317" y1="103.35" x2="20.317" y2="103.35" gradientUnits="userSpaceOnUse">
<stop stop-color="#F7F7F7" stop-opacity="0.85"/>
<stop offset="1" stop-color="#3F3F3F" stop-opacity="0.83"/>
</linearGradient>
<linearGradient id="paint1_linear_138_507" x1="103.15" y1="102.183" x2="5.99792" y2="106.063" gradientUnits="userSpaceOnUse">
<stop stop-color="white"/>
<stop offset="1" stop-color="#3F3F3F"/>
</linearGradient>
<linearGradient id="paint2_linear_138_507" x1="100.817" y1="99.8497" x2="5.99762" y2="103.726" gradientUnits="userSpaceOnUse">
<stop stop-color="white"/>
<stop offset="1" stop-color="#3F3F3F"/>
</linearGradient>
<linearGradient id="paint3_linear_138_507" x1="102.97" y1="104.697" x2="3.30982" y2="106.026" gradientUnits="userSpaceOnUse">
<stop stop-color="white"/>
<stop offset="1" stop-color="#3F3F3F"/>
</linearGradient>
<linearGradient id="paint4_linear_138_507" x1="93.817" y1="92.8497" x2="-0.00972323" y2="94.1778" gradientUnits="userSpaceOnUse">
<stop stop-color="white"/>
<stop offset="1" stop-color="#3F3F3F"/>
</linearGradient>
</defs>
</svg>
