<svg width="189" height="71" viewBox="0 0 189 71" fill="none" xmlns="http://www.w3.org/2000/svg">
<path d="M29.7 12.35V19H19.25V47H11.45V19H1V12.35H29.7ZM29.2031 34.05C29.2031 31.7167 29.5531 29.6833 30.2531 27.95C30.9865 26.1833 31.9365 24.7167 33.1031 23.55C34.2698 22.3833 35.6031 21.5 37.1031 20.9C38.6365 20.3 40.2031 20 41.8031 20C45.5365 20 48.4865 21.15 50.6531 23.45C52.8198 25.7167 53.9031 29.0667 53.9031 33.5C53.9031 33.9333 53.8865 34.4167 53.8531 34.95C53.8198 35.45 53.7865 35.9 53.7531 36.3H36.8531C37.0198 37.8333 37.7365 39.05 39.0031 39.95C40.2698 40.85 41.9698 41.3 44.1031 41.3C45.4698 41.3 46.8031 41.1833 48.1031 40.95C49.4365 40.6833 50.5198 40.3667 51.3531 40L52.3531 46.05C51.9531 46.25 51.4198 46.45 50.7531 46.65C50.0865 46.85 49.3365 47.0167 48.5031 47.15C47.7031 47.3167 46.8365 47.45 45.9031 47.55C44.9698 47.65 44.0365 47.7 43.1031 47.7C40.7365 47.7 38.6698 47.35 36.9031 46.65C35.1698 45.95 33.7198 45 32.5531 43.8C31.4198 42.5667 30.5698 41.1167 30.0031 39.45C29.4698 37.7833 29.2031 35.9833 29.2031 34.05ZM46.7031 31.2C46.6698 30.5667 46.5531 29.95 46.3531 29.35C46.1865 28.75 45.9031 28.2167 45.5031 27.75C45.1365 27.2833 44.6531 26.9 44.0531 26.6C43.4865 26.3 42.7698 26.15 41.9031 26.15C41.0698 26.15 40.3531 26.3 39.7531 26.6C39.1531 26.8667 38.6531 27.2333 38.2531 27.7C37.8531 28.1667 37.5365 28.7167 37.3031 29.35C37.1031 29.95 36.9531 30.5667 36.8531 31.2H46.7031ZM67.1023 30.2C67.8357 29.4 68.5857 28.5667 69.3523 27.7C70.1523 26.8333 70.919 25.9833 71.6523 25.15C72.3857 24.2833 73.069 23.4667 73.7023 22.7C74.369 21.9333 74.9357 21.2667 75.4023 20.7H84.2523C82.4857 22.7333 80.7523 24.6833 79.0523 26.55C77.3857 28.3833 75.5523 30.2833 73.5523 32.25C74.5523 33.15 75.5857 34.2333 76.6523 35.5C77.719 36.7333 78.7523 38.0167 79.7523 39.35C80.7523 40.6833 81.669 42.0167 82.5023 43.35C83.3357 44.6833 84.0357 45.9 84.6023 47H76.0523C75.519 46.1333 74.9023 45.1833 74.2023 44.15C73.5357 43.0833 72.819 42.0333 72.0523 41C71.2857 39.9333 70.469 38.9167 69.6023 37.95C68.769 36.9833 67.9357 36.1667 67.1023 35.5V47H59.6523V9.4L67.1023 8.2V30.2ZM111.401 33.8C111.401 35.8667 111.101 37.7667 110.501 39.5C109.901 41.2 109.034 42.6667 107.901 43.9C106.767 45.1 105.401 46.0333 103.801 46.7C102.234 47.3667 100.467 47.7 98.5008 47.7C96.5674 47.7 94.8008 47.3667 93.2008 46.7C91.6341 46.0333 90.2841 45.1 89.1508 43.9C88.0174 42.6667 87.1341 41.2 86.5008 39.5C85.8674 37.7667 85.5508 35.8667 85.5508 33.8C85.5508 31.7333 85.8674 29.85 86.5008 28.15C87.1674 26.45 88.0674 25 89.2008 23.8C90.3674 22.6 91.7341 21.6667 93.3008 21C94.9008 20.3333 96.6341 20 98.5008 20C100.401 20 102.134 20.3333 103.701 21C105.301 21.6667 106.667 22.6 107.801 23.8C108.934 25 109.817 26.45 110.451 28.15C111.084 29.85 111.401 31.7333 111.401 33.8ZM103.801 33.8C103.801 31.5 103.334 29.7 102.401 28.4C101.501 27.0667 100.201 26.4 98.5008 26.4C96.8008 26.4 95.4841 27.0667 94.5508 28.4C93.6174 29.7 93.1508 31.5 93.1508 33.8C93.1508 36.1 93.6174 37.9333 94.5508 39.3C95.4841 40.6333 96.8008 41.3 98.5008 41.3C100.201 41.3 101.501 40.6333 102.401 39.3C103.334 37.9333 103.801 36.1 103.801 33.8ZM133.022 27.3C132.355 27.1333 131.572 26.9667 130.672 26.8C129.772 26.6 128.805 26.5 127.772 26.5C127.305 26.5 126.739 26.55 126.072 26.65C125.439 26.7167 124.955 26.8 124.622 26.9V47H117.172V22.1C118.505 21.6333 120.072 21.2 121.872 20.8C123.705 20.3667 125.739 20.15 127.972 20.15C128.372 20.15 128.855 20.1833 129.422 20.25C129.989 20.2833 130.555 20.35 131.122 20.45C131.689 20.5167 132.255 20.6167 132.822 20.75C133.389 20.85 133.872 20.9833 134.272 21.15L133.022 27.3ZM145.816 41.65C147.182 41.65 148.149 41.5167 148.716 41.25C149.282 40.9833 149.566 40.4667 149.566 39.7C149.566 39.1 149.199 38.5833 148.466 38.15C147.732 37.6833 146.616 37.1667 145.116 36.6C143.949 36.1667 142.882 35.7167 141.916 35.25C140.982 34.7833 140.182 34.2333 139.516 33.6C138.849 32.9333 138.332 32.15 137.966 31.25C137.599 30.35 137.416 29.2667 137.416 28C137.416 25.5333 138.332 23.5833 140.166 22.15C141.999 20.7167 144.516 20 147.716 20C149.316 20 150.849 20.15 152.316 20.45C153.782 20.7167 154.949 21.0167 155.816 21.35L154.516 27.15C153.649 26.85 152.699 26.5833 151.666 26.35C150.666 26.1167 149.532 26 148.266 26C145.932 26 144.766 26.65 144.766 27.95C144.766 28.25 144.816 28.5167 144.916 28.75C145.016 28.9833 145.216 29.2167 145.516 29.45C145.816 29.65 146.216 29.8833 146.716 30.15C147.249 30.3833 147.916 30.65 148.716 30.95C150.349 31.55 151.699 32.15 152.766 32.75C153.832 33.3167 154.666 33.95 155.266 34.65C155.899 35.3167 156.332 36.0667 156.566 36.9C156.832 37.7333 156.966 38.7 156.966 39.8C156.966 42.4 155.982 44.3667 154.016 45.7C152.082 47.0333 149.332 47.7 145.766 47.7C143.432 47.7 141.482 47.5 139.916 47.1C138.382 46.7 137.316 46.3667 136.716 46.1L137.966 40.05C139.232 40.55 140.532 40.95 141.866 41.25C143.199 41.5167 144.516 41.65 145.816 41.65ZM161.283 34.05C161.283 31.7167 161.633 29.6833 162.333 27.95C163.067 26.1833 164.017 24.7167 165.183 23.55C166.35 22.3833 167.683 21.5 169.183 20.9C170.717 20.3 172.283 20 173.883 20C177.617 20 180.567 21.15 182.733 23.45C184.9 25.7167 185.983 29.0667 185.983 33.5C185.983 33.9333 185.967 34.4167 185.933 34.95C185.9 35.45 185.867 35.9 185.833 36.3H168.933C169.1 37.8333 169.817 39.05 171.083 39.95C172.35 40.85 174.05 41.3 176.183 41.3C177.55 41.3 178.883 41.1833 180.183 40.95C181.517 40.6833 182.6 40.3667 183.433 40L184.433 46.05C184.033 46.25 183.5 46.45 182.833 46.65C182.167 46.85 181.417 47.0167 180.583 47.15C179.783 47.3167 178.917 47.45 177.983 47.55C177.05 47.65 176.117 47.7 175.183 47.7C172.817 47.7 170.75 47.35 168.983 46.65C167.25 45.95 165.8 45 164.633 43.8C163.5 42.5667 162.65 41.1167 162.083 39.45C161.55 37.7833 161.283 35.9833 161.283 34.05ZM178.783 31.2C178.75 30.5667 178.633 29.95 178.433 29.35C178.267 28.75 177.983 28.2167 177.583 27.75C177.217 27.2833 176.733 26.9 176.133 26.6C175.567 26.3 174.85 26.15 173.983 26.15C173.15 26.15 172.433 26.3 171.833 26.6C171.233 26.8667 170.733 27.2333 170.333 27.7C169.933 28.1667 169.617 28.7167 169.383 29.35C169.183 29.95 169.033 30.5667 168.933 31.2H178.783Z" fill="#0E5FD7"/>
<path d="M45.98 53.14V54.82H41.62V67H39.68V54.82H35.32V53.14H45.98ZM46.2348 61.82C46.2348 60.9 46.3682 60.1 46.6348 59.42C46.9015 58.7267 47.2548 58.1533 47.6948 57.7C48.1348 57.2467 48.6415 56.9067 49.2148 56.68C49.7882 56.4533 50.3748 56.34 50.9748 56.34C52.3748 56.34 53.4482 56.78 54.1948 57.66C54.9415 58.5267 55.3148 59.8533 55.3148 61.64C55.3148 61.72 55.3148 61.8267 55.3148 61.96C55.3148 62.08 55.3082 62.1933 55.2948 62.3H48.1748C48.2548 63.38 48.5682 64.2 49.1148 64.76C49.6615 65.32 50.5148 65.6 51.6748 65.6C52.3282 65.6 52.8748 65.5467 53.3148 65.44C53.7682 65.32 54.1082 65.2067 54.3348 65.1L54.5948 66.66C54.3682 66.78 53.9682 66.9067 53.3948 67.04C52.8348 67.1733 52.1948 67.24 51.4748 67.24C50.5682 67.24 49.7815 67.1067 49.1148 66.84C48.4615 66.56 47.9215 66.18 47.4948 65.7C47.0682 65.22 46.7482 64.6533 46.5348 64C46.3348 63.3333 46.2348 62.6067 46.2348 61.82ZM53.3748 60.8C53.3882 59.96 53.1748 59.2733 52.7348 58.74C52.3082 58.1933 51.7148 57.92 50.9548 57.92C50.5282 57.92 50.1482 58.0067 49.8148 58.18C49.4948 58.34 49.2215 58.5533 48.9948 58.82C48.7682 59.0867 48.5882 59.3933 48.4548 59.74C48.3348 60.0867 48.2548 60.44 48.2148 60.8H53.3748ZM62.5067 67.24C61.6667 67.24 60.9267 67.1067 60.2867 66.84C59.6601 66.5733 59.1267 66.2 58.6867 65.72C58.2601 65.24 57.9401 64.6733 57.7267 64.02C57.5134 63.3533 57.4067 62.62 57.4067 61.82C57.4067 61.02 57.5201 60.2867 57.7467 59.62C57.9867 58.9533 58.3201 58.38 58.7467 57.9C59.1734 57.4067 59.6934 57.0267 60.3067 56.76C60.9334 56.48 61.6267 56.34 62.3867 56.34C62.8534 56.34 63.3201 56.38 63.7867 56.46C64.2534 56.54 64.7001 56.6667 65.1267 56.84L64.7067 58.42C64.4267 58.2867 64.1001 58.18 63.7267 58.1C63.3667 58.02 62.9801 57.98 62.5667 57.98C61.5267 57.98 60.7267 58.3067 60.1667 58.96C59.6201 59.6133 59.3467 60.5667 59.3467 61.82C59.3467 62.38 59.4067 62.8933 59.5267 63.36C59.6601 63.8267 59.8601 64.2267 60.1267 64.56C60.4067 64.8933 60.7601 65.1533 61.1867 65.34C61.6134 65.5133 62.1334 65.6 62.7467 65.6C63.2401 65.6 63.6867 65.5533 64.0867 65.46C64.4867 65.3667 64.8001 65.2667 65.0267 65.16L65.2867 66.72C65.1801 66.7867 65.0267 66.8533 64.8267 66.92C64.6267 66.9733 64.4001 67.02 64.1467 67.06C63.8934 67.1133 63.6201 67.1533 63.3267 67.18C63.0467 67.22 62.7734 67.24 62.5067 67.24ZM67.2836 67V51.8L69.1436 51.48V56.8C69.4903 56.6667 69.8569 56.5667 70.2436 56.5C70.6436 56.42 71.0369 56.38 71.4236 56.38C72.2503 56.38 72.9369 56.5 73.4836 56.74C74.0303 56.9667 74.4636 57.2933 74.7836 57.72C75.1169 58.1333 75.3503 58.6333 75.4836 59.22C75.6169 59.8067 75.6836 60.4533 75.6836 61.16V67H73.8236V61.56C73.8236 60.92 73.7769 60.3733 73.6836 59.92C73.6036 59.4667 73.4636 59.1 73.2636 58.82C73.0636 58.54 72.7969 58.34 72.4636 58.22C72.1303 58.0867 71.7169 58.02 71.2236 58.02C71.0236 58.02 70.8169 58.0333 70.6036 58.06C70.3903 58.0867 70.1836 58.12 69.9836 58.16C69.7969 58.1867 69.6236 58.22 69.4636 58.26C69.3169 58.3 69.2103 58.3333 69.1436 58.36V67H67.2836ZM78.7094 56.9C79.136 56.7933 79.7027 56.68 80.4094 56.56C81.116 56.44 81.9294 56.38 82.8494 56.38C83.676 56.38 84.3627 56.5 84.9094 56.74C85.456 56.9667 85.8894 57.2933 86.2094 57.72C86.5427 58.1333 86.776 58.6333 86.9094 59.22C87.0427 59.8067 87.1094 60.4533 87.1094 61.16V67H85.2494V61.56C85.2494 60.92 85.2027 60.3733 85.1094 59.92C85.0294 59.4667 84.8894 59.1 84.6894 58.82C84.4894 58.54 84.2227 58.34 83.8894 58.22C83.556 58.0867 83.1427 58.02 82.6494 58.02C82.4494 58.02 82.2427 58.0267 82.0294 58.04C81.816 58.0533 81.6094 58.0733 81.4094 58.1C81.2227 58.1133 81.0494 58.1333 80.8894 58.16C80.7427 58.1867 80.636 58.2067 80.5694 58.22V67H78.7094V56.9ZM99.3738 61.8C99.3738 62.6267 99.2538 63.3733 99.0138 64.04C98.7738 64.7067 98.4338 65.28 97.9938 65.76C97.5671 66.24 97.0538 66.6133 96.4538 66.88C95.8538 67.1333 95.2004 67.26 94.4938 67.26C93.7871 67.26 93.1338 67.1333 92.5338 66.88C91.9338 66.6133 91.4138 66.24 90.9738 65.76C90.5471 65.28 90.2138 64.7067 89.9738 64.04C89.7338 63.3733 89.6138 62.6267 89.6138 61.8C89.6138 60.9867 89.7338 60.2467 89.9738 59.58C90.2138 58.9 90.5471 58.32 90.9738 57.84C91.4138 57.36 91.9338 56.9933 92.5338 56.74C93.1338 56.4733 93.7871 56.34 94.4938 56.34C95.2004 56.34 95.8538 56.4733 96.4538 56.74C97.0538 56.9933 97.5671 57.36 97.9938 57.84C98.4338 58.32 98.7738 58.9 99.0138 59.58C99.2538 60.2467 99.3738 60.9867 99.3738 61.8ZM97.4338 61.8C97.4338 60.6267 97.1671 59.7 96.6338 59.02C96.1138 58.3267 95.4004 57.98 94.4938 57.98C93.5871 57.98 92.8671 58.3267 92.3338 59.02C91.8138 59.7 91.5538 60.6267 91.5538 61.8C91.5538 62.9733 91.8138 63.9067 92.3338 64.6C92.8671 65.28 93.5871 65.62 94.4938 65.62C95.4004 65.62 96.1138 65.28 96.6338 64.6C97.1671 63.9067 97.4338 62.9733 97.4338 61.8ZM105.111 67.2C103.964 67.1733 103.151 66.9267 102.671 66.46C102.191 65.9933 101.951 65.2667 101.951 64.28V51.8L103.811 51.48V63.98C103.811 64.2867 103.837 64.54 103.891 64.74C103.944 64.94 104.031 65.1 104.151 65.22C104.271 65.34 104.431 65.4333 104.631 65.5C104.831 65.5533 105.077 65.6 105.371 65.64L105.111 67.2ZM116.639 61.8C116.639 62.6267 116.519 63.3733 116.279 64.04C116.039 64.7067 115.699 65.28 115.259 65.76C114.833 66.24 114.319 66.6133 113.719 66.88C113.119 67.1333 112.466 67.26 111.759 67.26C111.053 67.26 110.399 67.1333 109.799 66.88C109.199 66.6133 108.679 66.24 108.239 65.76C107.813 65.28 107.479 64.7067 107.239 64.04C106.999 63.3733 106.879 62.6267 106.879 61.8C106.879 60.9867 106.999 60.2467 107.239 59.58C107.479 58.9 107.813 58.32 108.239 57.84C108.679 57.36 109.199 56.9933 109.799 56.74C110.399 56.4733 111.053 56.34 111.759 56.34C112.466 56.34 113.119 56.4733 113.719 56.74C114.319 56.9933 114.833 57.36 115.259 57.84C115.699 58.32 116.039 58.9 116.279 59.58C116.519 60.2467 116.639 60.9867 116.639 61.8ZM114.699 61.8C114.699 60.6267 114.433 59.7 113.899 59.02C113.379 58.3267 112.666 57.98 111.759 57.98C110.853 57.98 110.133 58.3267 109.599 59.02C109.079 59.7 108.819 60.6267 108.819 61.8C108.819 62.9733 109.079 63.9067 109.599 64.6C110.133 65.28 110.853 65.62 111.759 65.62C112.666 65.62 113.379 65.28 113.899 64.6C114.433 63.9067 114.699 62.9733 114.699 61.8ZM125.776 65.96C125.616 66.0667 125.303 66.2067 124.836 66.38C124.383 66.54 123.85 66.62 123.236 66.62C122.61 66.62 122.016 66.52 121.456 66.32C120.91 66.12 120.43 65.8133 120.016 65.4C119.603 64.9733 119.276 64.4467 119.036 63.82C118.796 63.1933 118.676 62.4467 118.676 61.58C118.676 60.82 118.79 60.1267 119.016 59.5C119.243 58.86 119.57 58.3133 119.996 57.86C120.436 57.3933 120.97 57.0333 121.596 56.78C122.223 56.5133 122.93 56.38 123.716 56.38C124.583 56.38 125.336 56.4467 125.976 56.58C126.63 56.7 127.176 56.8133 127.616 56.92V66.2C127.616 67.8 127.203 68.96 126.376 69.68C125.55 70.4 124.296 70.76 122.616 70.76C121.963 70.76 121.343 70.7067 120.756 70.6C120.183 70.4933 119.683 70.3667 119.256 70.22L119.596 68.6C119.97 68.7467 120.423 68.8733 120.956 68.98C121.503 69.1 122.07 69.16 122.656 69.16C123.763 69.16 124.556 68.94 125.036 68.5C125.53 68.06 125.776 67.36 125.776 66.4V65.96ZM125.756 58.24C125.57 58.1867 125.316 58.14 124.996 58.1C124.69 58.0467 124.27 58.02 123.736 58.02C122.736 58.02 121.963 58.3467 121.416 59C120.883 59.6533 120.616 60.52 120.616 61.6C120.616 62.2 120.69 62.7133 120.836 63.14C120.996 63.5667 121.203 63.92 121.456 64.2C121.723 64.48 122.023 64.6867 122.356 64.82C122.703 64.9533 123.056 65.02 123.416 65.02C123.91 65.02 124.363 64.9533 124.776 64.82C125.19 64.6733 125.516 64.5067 125.756 64.32V58.24ZM132.679 67H130.819V56.6H132.679V67ZM131.739 54.72C131.405 54.72 131.119 54.6133 130.879 54.4C130.652 54.1733 130.539 53.8733 130.539 53.5C130.539 53.1267 130.652 52.8333 130.879 52.62C131.119 52.3933 131.405 52.28 131.739 52.28C132.072 52.28 132.352 52.3933 132.579 52.62C132.819 52.8333 132.939 53.1267 132.939 53.5C132.939 53.8733 132.819 54.1733 132.579 54.4C132.352 54.6133 132.072 54.72 131.739 54.72ZM135.297 61.82C135.297 60.9 135.431 60.1 135.697 59.42C135.964 58.7267 136.317 58.1533 136.757 57.7C137.197 57.2467 137.704 56.9067 138.277 56.68C138.851 56.4533 139.437 56.34 140.037 56.34C141.437 56.34 142.511 56.78 143.257 57.66C144.004 58.5267 144.377 59.8533 144.377 61.64C144.377 61.72 144.377 61.8267 144.377 61.96C144.377 62.08 144.371 62.1933 144.357 62.3H137.237C137.317 63.38 137.631 64.2 138.177 64.76C138.724 65.32 139.577 65.6 140.737 65.6C141.391 65.6 141.937 65.5467 142.377 65.44C142.831 65.32 143.171 65.2067 143.397 65.1L143.657 66.66C143.431 66.78 143.031 66.9067 142.457 67.04C141.897 67.1733 141.257 67.24 140.537 67.24C139.631 67.24 138.844 67.1067 138.177 66.84C137.524 66.56 136.984 66.18 136.557 65.7C136.131 65.22 135.811 64.6533 135.597 64C135.397 63.3333 135.297 62.6067 135.297 61.82ZM142.437 60.8C142.451 59.96 142.237 59.2733 141.797 58.74C141.371 58.1933 140.777 57.92 140.017 57.92C139.591 57.92 139.211 58.0067 138.877 58.18C138.557 58.34 138.284 58.5533 138.057 58.82C137.831 59.0867 137.651 59.3933 137.517 59.74C137.397 60.0867 137.317 60.44 137.277 60.8H142.437ZM149.469 65.66C150.229 65.66 150.789 65.56 151.149 65.36C151.523 65.16 151.709 64.84 151.709 64.4C151.709 63.9467 151.529 63.5867 151.169 63.32C150.809 63.0533 150.216 62.7533 149.389 62.42C148.989 62.26 148.603 62.1 148.229 61.94C147.869 61.7667 147.556 61.5667 147.289 61.34C147.023 61.1133 146.809 60.84 146.649 60.52C146.489 60.2 146.409 59.8067 146.409 59.34C146.409 58.42 146.749 57.6933 147.429 57.16C148.109 56.6133 149.036 56.34 150.209 56.34C150.503 56.34 150.796 56.36 151.089 56.4C151.383 56.4267 151.656 56.4667 151.909 56.52C152.163 56.56 152.383 56.6067 152.569 56.66C152.769 56.7133 152.923 56.76 153.029 56.8L152.689 58.4C152.489 58.2933 152.176 58.1867 151.749 58.08C151.323 57.96 150.809 57.9 150.209 57.9C149.689 57.9 149.236 58.0067 148.849 58.22C148.463 58.42 148.269 58.74 148.269 59.18C148.269 59.4067 148.309 59.6067 148.389 59.78C148.483 59.9533 148.616 60.1133 148.789 60.26C148.976 60.3933 149.203 60.52 149.469 60.64C149.736 60.76 150.056 60.8867 150.429 61.02C150.923 61.2067 151.363 61.3933 151.749 61.58C152.136 61.7533 152.463 61.96 152.729 62.2C153.009 62.44 153.223 62.7333 153.369 63.08C153.516 63.4133 153.589 63.8267 153.589 64.32C153.589 65.28 153.229 66.0067 152.509 66.5C151.803 66.9933 150.789 67.24 149.469 67.24C148.549 67.24 147.829 67.16 147.309 67C146.789 66.8533 146.436 66.74 146.249 66.66L146.589 65.06C146.803 65.14 147.143 65.26 147.609 65.42C148.076 65.58 148.696 65.66 149.469 65.66Z" fill="#135CDA"/>
</svg>
